# Blender v2.79 (sub 0) OBJ File: 'speed.blend'
# www.blender.org
mtllib speed.mtl
o Cube.001
v 1.000000 0.836993 -0.280360
v 1.000000 0.081218 -0.280360
v -1.000000 0.081218 -0.280360
v -1.000000 0.836993 -0.280360
v 1.000000 0.837165 0.197087
v 0.999999 0.081389 0.197087
v -1.000000 0.081390 0.197087
v -1.000000 0.837165 0.197087
v 0.000000 1.278955 0.197087
v -0.000001 0.523180 0.197087
v 0.000000 1.278783 -0.280360
v 0.000000 0.523008 -0.280360
v 1.000000 -0.318514 -0.280360
v 1.000000 -1.074289 -0.280360
v -1.000000 -1.074289 -0.280360
v -1.000000 -0.318513 -0.280360
v 1.000000 -0.318342 0.197087
v 0.999999 -1.074117 0.197087
v -1.000000 -1.074116 0.197087
v -1.000000 -0.318341 0.197087
v 0.000000 0.123448 0.197087
v -0.000001 -0.632327 0.197087
v 0.000000 0.123276 -0.280360
v 0.000000 -0.632499 -0.280360
vn -0.0000 0.0000 -1.0000
vn -0.0000 -0.0000 1.0000
vn 1.0000 -0.0000 0.0000
vn -0.4041 -0.9147 0.0003
vn -1.0000 0.0000 -0.0000
vn 0.4041 0.9147 -0.0003
vn -0.4041 0.9147 -0.0003
vn 0.4041 -0.9147 0.0003
usemtl Material.001
s off
f 11//1 12//1 3//1 4//1
f 9//2 8//2 7//2 10//2
f 1//3 5//3 6//3 2//3
f 2//4 6//4 10//4 12//4
f 3//5 7//5 8//5 4//5
f 5//6 1//6 11//6 9//6
f 5//2 9//2 10//2 6//2
f 1//1 2//1 12//1 11//1
f 9//7 11//7 4//7 8//7
f 12//8 10//8 7//8 3//8
usemtl Material.002
f 23//1 24//1 15//1 16//1
f 21//2 20//2 19//2 22//2
f 13//3 17//3 18//3 14//3
f 14//4 18//4 22//4 24//4
f 15//5 19//5 20//5 16//5
f 17//6 13//6 23//6 21//6
f 17//2 21//2 22//2 18//2
f 13//1 14//1 24//1 23//1
f 21//7 23//7 16//7 20//7
f 24//8 22//8 19//8 15//8
